<svg version="1.1" id="Layer_1" xmlns="http://www.w3.org/2000/svg" xmlns:xlink="http://www.w3.org/1999/xlink" x="0px" y="0px"
	 width="100%" viewBox="0 0 512 512" enable-background="new 0 0 512 512" xml:space="preserve">
<path fill="#000000" opacity="1.000000" stroke="none" 
	d="
M271.000000,513.000000 
	C180.688583,513.000000 90.877167,513.000000 1.032874,513.000000 
	C1.032874,342.396881 1.032874,171.793777 1.032874,1.095328 
	C171.561432,1.095328 342.122955,1.095328 512.842224,1.095328 
	C512.842224,171.666550 512.842224,342.333252 512.842224,513.000000 
	C432.460419,513.000000 351.980194,513.000000 271.000000,513.000000 
M49.000000,206.500000 
	C49.000038,264.485443 48.993881,322.470917 49.003189,380.456360 
	C49.006863,403.329651 70.739380,424.996521 93.675079,424.997650 
	C202.481339,425.002930 311.287598,425.002014 420.093842,424.998413 
	C443.382202,424.997650 464.996338,403.445160 464.997894,380.217194 
	C465.003357,299.403961 464.906158,218.590485 465.125061,137.777863 
	C465.150879,128.247513 463.242493,119.573326 458.252716,111.668976 
	C449.439789,97.708359 436.958466,89.107643 420.122467,89.082664 
	C311.316467,88.921249 202.510086,88.997009 93.703835,89.002411 
	C70.751236,89.003555 49.013718,110.655457 49.002659,133.517914 
	C48.991047,157.511948 49.000023,181.505966 49.000000,206.500000 
z"/>
<path fill="#231F20" opacity="1.000000" stroke="none" 
	d="
M49.000000,206.000000 
	C49.000023,181.505966 48.991047,157.511948 49.002659,133.517914 
	C49.013718,110.655457 70.751236,89.003555 93.703835,89.002411 
	C202.510086,88.997009 311.316467,88.921249 420.122467,89.082664 
	C436.958466,89.107643 449.439789,97.708359 458.252716,111.668976 
	C463.242493,119.573326 465.150879,128.247513 465.125061,137.777863 
	C464.906158,218.590485 465.003357,299.403961 464.997894,380.217194 
	C464.996338,403.445160 443.382202,424.997650 420.093842,424.998413 
	C311.287598,425.002014 202.481339,425.002930 93.675079,424.997650 
	C70.739380,424.996521 49.006863,403.329651 49.003189,380.456360 
	C48.993881,322.470917 49.000038,264.485443 49.000000,206.000000 
M440.977173,147.148575 
	C440.984802,144.651428 441.001709,142.154266 440.998535,139.657135 
	C440.977020,122.770554 431.224152,113.005386 414.350281,113.002411 
	C374.727325,112.995422 335.104370,112.999908 295.481415,113.000038 
	C229.720627,113.000252 163.959839,112.989952 98.199051,113.010330 
	C85.438622,113.014282 75.236740,121.069031 73.381477,133.142807 
	C72.632462,138.017288 73.206085,143.094986 73.104851,148.946320 
	C73.130295,151.263916 73.155739,153.581497 73.024132,156.837463 
	C73.069061,168.876236 73.113983,180.914993 73.050758,193.852325 
	C73.050758,196.100906 73.050758,198.349487 73.050758,200.659210 
	C196.048447,200.659210 318.258026,200.659210 440.841095,200.659210 
	C440.841095,197.866608 440.841095,195.410126 440.958435,192.028824 
	C440.912567,179.988541 440.866699,167.948257 440.936310,155.043701 
	C440.896820,152.722717 440.857330,150.401733 440.977173,147.148575 
M73.000000,315.500000 
	C73.000092,335.666351 72.986740,355.832703 73.004807,375.999054 
	C73.017677,390.365204 83.558975,400.992157 97.844727,400.993683 
	C204.011292,401.004974 310.177856,401.006165 416.344421,400.991943 
	C430.318542,400.990082 440.987244,390.300903 440.992188,376.309998 
	C441.011047,322.643372 440.930511,268.976532 441.112427,215.310547 
	C441.129700,210.212601 439.697754,208.887573 434.654724,208.893433 
	C316.154999,209.031036 197.655045,209.025146 79.155289,208.908005 
	C74.444824,208.903351 72.862511,210.069946 72.893082,215.000778 
	C73.098701,248.166122 73.000061,281.333374 73.000000,315.500000 
z"/>
<path fill="#332F30" opacity="1.000000" stroke="none" 
	d="
M73.000000,315.000000 
	C73.000061,281.333374 73.098701,248.166122 72.893082,215.000778 
	C72.862511,210.069946 74.444824,208.903351 79.155289,208.908005 
	C197.655045,209.025146 316.154999,209.031036 434.654724,208.893433 
	C439.697754,208.887573 441.129700,210.212601 441.112427,215.310547 
	C440.930511,268.976532 441.011047,322.643372 440.992188,376.309998 
	C440.987244,390.300903 430.318542,400.990082 416.344421,400.991943 
	C310.177856,401.006165 204.011292,401.004974 97.844727,400.993683 
	C83.558975,400.992157 73.017677,390.365204 73.004807,375.999054 
	C72.986740,355.832703 73.000092,335.666351 73.000000,315.000000 
M332.520813,249.000000 
	C328.761200,249.000000 325.001587,249.000000 321.250916,249.000000 
	C321.250916,251.977417 321.250916,254.243362 321.250916,256.726807 
	C350.520020,256.726807 379.539215,256.726807 408.654144,256.726807 
	C408.654144,254.069763 408.654144,251.694046 408.654144,249.000000 
	C383.378479,249.000000 358.445892,249.000000 332.520813,249.000000 
M359.500000,305.000000 
	C375.905548,305.000000 392.311127,305.000000 408.767090,305.000000 
	C408.767090,302.052032 408.767090,299.787048 408.767090,297.263336 
	C379.517303,297.263336 350.499023,297.263336 321.326416,297.263336 
	C321.326416,299.894043 321.326416,302.269257 321.326416,305.000000 
	C333.932007,305.000000 346.216003,305.000000 359.500000,305.000000 
M325.688354,273.000336 
	C324.247345,273.107483 322.806366,273.214600 321.297882,273.326721 
	C321.297882,275.969360 321.297882,278.216248 321.297882,280.636627 
	C350.601349,280.636627 379.609222,280.636627 408.695587,280.636627 
	C408.695587,278.022552 408.695587,275.774628 408.695587,273.000000 
	C381.149323,273.000000 353.900665,273.000000 325.688354,273.000336 
M258.754761,306.500061 
	C258.754791,292.519653 258.918549,278.536804 258.708252,264.559570 
	C258.502838,250.909576 259.607941,237.187912 257.074890,223.547470 
	C255.790207,225.283554 255.287811,227.062317 255.281158,228.842911 
	C255.220154,245.153122 255.245178,261.463654 255.245193,277.774109 
	C255.245193,309.562836 255.230072,341.351624 255.284515,373.140259 
	C255.287643,374.965332 255.858185,376.789429 256.164642,378.613983 
	C257.027985,378.536072 257.891296,378.458191 258.754608,378.380280 
	C258.754608,354.753540 258.754608,331.126801 258.754761,306.500061 
M166.500137,305.000000 
	C177.922562,305.000000 189.344986,305.000000 200.699371,305.000000 
	C200.699371,302.030151 200.699371,299.632141 200.699371,297.281464 
	C182.011368,297.281464 163.625305,297.281464 145.300323,297.281464 
	C145.300323,299.969299 145.300323,302.367279 145.300323,305.000000 
	C152.231888,305.000000 158.866058,305.000000 166.500137,305.000000 
M145.001007,350.416107 
	C144.563217,353.407867 146.643036,353.005096 148.460739,353.003601 
	C158.281815,352.995544 168.102905,352.999969 177.923981,353.000000 
	C185.527740,353.000031 193.131500,353.000000 200.715546,353.000000 
	C200.715546,350.061096 200.715546,347.663177 200.715546,345.276001 
	C182.038193,345.276001 163.646515,345.276001 145.000122,345.276001 
	C145.000122,346.856537 145.000122,348.162659 145.001007,350.416107 
M186.494843,369.000000 
	C172.742752,369.000000 158.990646,369.000000 145.298553,369.000000 
	C145.298553,371.966003 145.298553,374.363953 145.298553,376.719849 
	C163.984818,376.719849 182.371231,376.719849 200.701111,376.719849 
	C200.701111,374.033386 200.701111,371.635437 200.701111,369.000000 
	C196.100235,369.000000 191.795807,369.000000 186.494843,369.000000 
M187.491379,273.000000 
	C173.406708,273.000000 159.322021,273.000000 145.299225,273.000000 
	C145.299225,275.967224 145.299225,278.365204 145.299225,280.719238 
	C163.986176,280.719238 182.372604,280.719238 200.700424,280.719238 
	C200.700424,278.032166 200.700424,275.634155 200.700424,273.000000 
	C196.431519,273.000000 192.459702,273.000000 187.491379,273.000000 
M162.501343,249.000000 
	C156.736633,249.000000 150.971909,249.000000 145.310989,249.000000 
	C145.310989,251.988495 145.310989,254.387039 145.310989,256.709412 
	C164.009598,256.709412 182.395874,256.709412 200.689209,256.709412 
	C200.689209,254.011856 200.689209,251.613312 200.689209,249.000000 
	C188.086823,249.000000 175.793762,249.000000 162.501343,249.000000 
M321.882446,352.842682 
	C337.454559,352.842682 353.026642,352.842682 368.638184,352.842682 
	C368.638184,350.037964 368.638184,347.662964 368.638184,345.383240 
	C352.578888,345.383240 336.883057,345.383240 321.189484,345.383240 
	C321.189484,347.918793 321.189484,350.071136 321.882446,352.842682 
M367.981903,369.303986 
	C352.441956,369.303986 336.901978,369.303986 321.439667,369.303986 
	C321.439667,372.119446 321.439667,374.344482 321.439667,376.622742 
	C337.412567,376.622742 352.949402,376.622742 368.969696,376.622742 
	C368.848083,374.122375 368.745697,372.016754 367.981903,369.303986 
M352.642090,225.908005 
	C342.317902,225.908005 331.993713,225.908005 321.477264,225.908005 
	C321.477264,227.970993 321.477264,230.303802 321.477264,232.587082 
	C332.158447,232.587082 342.364716,232.587082 352.898224,232.587082 
	C352.898224,230.374222 352.898224,228.572617 352.642090,225.908005 
M167.457367,225.000000 
	C160.052933,225.000000 152.648483,225.000000 145.239761,225.000000 
	C145.239761,227.965851 145.239761,230.228195 145.239761,232.729614 
	C155.837021,232.729614 166.195419,232.729614 176.664597,232.729614 
	C176.664597,230.079956 176.664597,227.708191 176.664597,225.000000 
	C173.706924,225.000000 171.074814,225.000000 167.457367,225.000000 
M347.335480,321.000061 
	C338.755646,321.000061 330.175781,321.000061 321.500671,321.000061 
	C321.500671,324.017670 321.500671,326.349091 321.500671,328.572327 
	C332.200043,328.572327 342.400635,328.572327 352.769318,328.572327 
	C352.769318,326.034149 352.769318,323.924011 352.769318,321.394012 
	C351.157013,321.252472 349.722443,321.126556 347.335480,321.000061 
M164.488098,329.000000 
	C168.571808,329.000000 172.655533,329.000000 176.766251,329.000000 
	C176.766251,326.044525 176.766251,323.782532 176.766251,321.263550 
	C166.176590,321.263550 155.819382,321.263550 145.327164,321.263550 
	C145.327164,323.907318 145.327164,326.277344 145.327164,329.000000 
	C151.595932,329.000000 157.543625,329.000000 164.488098,329.000000 
M405.316956,345.000061 
	C398.572144,345.000061 391.827362,345.000061 385.178772,345.000061 
	C385.178772,347.970795 385.178772,350.255920 385.178772,352.649353 
	C393.210968,352.649353 401.060181,352.649353 409.461884,352.649353 
	C407.646729,350.003052 411.761963,345.776642 405.316956,345.000061 
M404.355103,369.000000 
	C397.939636,369.000000 391.524200,369.000000 385.353302,369.000000 
	C385.353302,372.074463 385.353302,374.467377 385.353302,376.663269 
	C393.438873,376.663269 401.167969,376.663269 409.454437,376.663269 
	C407.574341,373.942841 412.249207,368.646423 404.355103,369.000000 
M292.507477,321.000000 
	C288.758850,321.000000 285.010223,321.000000 281.230469,321.000000 
	C281.230469,323.952515 281.230469,326.213043 281.230469,328.735291 
	C289.153229,328.735291 296.846832,328.735291 304.674164,328.735291 
	C304.674164,326.093994 304.674164,323.724091 304.674164,321.000000 
	C300.733337,321.000000 297.112885,321.000000 292.507477,321.000000 
M105.003304,325.454193 
	C105.757141,326.624817 106.473984,328.781799 107.270592,328.811707 
	C114.347885,329.077026 121.439308,328.966034 128.566956,328.966034 
	C128.566956,325.999542 128.566956,323.645050 128.566956,321.006561 
	C121.512535,321.006561 114.883286,321.106598 108.259575,320.958649 
	C105.504082,320.897095 104.743156,322.129761 105.003304,325.454193 
M300.330658,232.999863 
	C301.772064,232.909058 303.213440,232.818268 304.628418,232.729141 
	C304.628418,230.004929 304.628418,227.637314 304.628418,225.396057 
	C296.560120,225.396057 288.867462,225.396057 281.283081,225.396057 
	C281.283081,228.053665 281.283081,230.312042 281.283081,233.000000 
	C287.491821,233.000000 293.427002,233.000000 300.330658,232.999863 
M123.348701,225.000031 
	C117.420158,225.000031 111.491615,225.000031 105.386993,225.000031 
	C105.386993,227.917542 105.386993,230.270203 105.386993,232.714767 
	C113.329765,232.714767 120.886002,232.714767 128.717773,232.714767 
	C128.717773,230.189453 128.717773,227.946716 128.717773,225.324799 
	C127.181953,225.211838 125.744263,225.106094 123.348701,225.000031 
M226.442444,305.000000 
	C228.530609,305.000000 230.618790,305.000000 232.598892,305.000000 
	C232.598892,301.951172 232.598892,299.581909 232.598892,297.257141 
	C227.287643,297.257141 222.379364,297.257141 217.313278,297.257141 
	C217.313278,299.887299 217.313278,302.252655 217.313278,305.000000 
	C220.239502,305.000000 222.858383,305.000000 226.442444,305.000000 
M232.103775,280.844513 
	C232.479782,278.397430 232.855774,275.950317 233.258438,273.329712 
	C227.375275,273.329712 222.341141,273.329712 217.397247,273.329712 
	C217.397247,276.040039 217.397247,278.410187 217.397247,280.971741 
	C222.251724,280.971741 226.711761,280.971741 232.103775,280.844513 
M217.194962,345.756378 
	C217.194962,348.018036 217.194962,350.279663 217.194962,352.691650 
	C222.572586,352.691650 227.606796,352.691650 232.626129,352.691650 
	C232.626129,349.997620 232.626129,347.631500 232.626129,345.153809 
	C227.470154,345.153809 222.685501,345.153809 217.194962,345.756378 
M224.525574,257.000000 
	C227.271255,257.000000 230.016953,257.000000 232.758911,257.000000 
	C232.758911,254.024368 232.758911,251.766220 232.758911,249.280457 
	C227.486832,249.280457 222.455612,249.280457 217.339905,249.280457 
	C217.339905,251.939346 217.339905,254.305176 217.339905,257.000000 
	C219.633163,257.000000 221.597366,257.000000 224.525574,257.000000 
M226.438202,369.000000 
	C223.362076,369.000000 220.285934,369.000000 217.253815,369.000000 
	C217.253815,371.997803 217.253815,374.256653 217.253815,376.706909 
	C222.540848,376.706909 227.572968,376.706909 232.644897,376.706909 
	C232.644897,374.036652 232.644897,371.668365 232.644897,369.000000 
	C230.658829,369.000000 229.024582,369.000000 226.438202,369.000000 
z"/>
<path fill="#1C75BC" opacity="1.000000" stroke="none" 
	d="
M440.820862,155.907974 
	C440.866699,167.948257 440.912567,179.988541 440.442688,192.504333 
	C317.670929,192.971146 195.414917,192.962463 73.158913,192.953766 
	C73.113983,180.914993 73.069061,168.876236 73.306915,156.092850 
	C76.937874,143.630325 85.655334,137.008133 97.880379,137.006912 
	C203.025269,136.996292 308.170166,137.000031 413.315063,137.000443 
	C428.543365,137.000504 435.642609,141.882980 440.820862,155.907974 
M358.258301,157.146774 
	C358.258301,163.595581 358.258301,170.044388 358.258301,176.718018 
	C365.594543,176.718018 372.468658,176.718018 379.534546,176.718018 
	C379.534546,169.669418 379.534546,162.932785 379.534546,156.311523 
	C372.354980,156.311523 365.441132,156.311523 358.258301,157.146774 
M410.236633,166.223770 
	C412.285919,163.555786 414.335205,160.887802 416.909332,157.536530 
	C415.965485,156.649689 414.812195,155.566040 413.482605,154.316742 
	C410.623627,156.984589 408.227020,159.220947 405.657288,161.618851 
	C403.111938,159.219711 400.742340,156.986221 398.071350,154.468643 
	C396.648590,155.652634 395.438324,156.659790 394.128418,157.749878 
	C397.069275,160.834518 399.310242,163.185059 401.649475,165.638641 
	C399.108124,168.366562 396.879120,170.759201 394.454346,173.361954 
	C395.894379,174.655365 397.065826,175.707535 399.439758,177.839798 
	C401.543518,174.884720 403.450897,172.205505 406.274292,168.239578 
	C408.791412,171.940048 410.666962,174.697281 412.728363,177.727753 
	C414.655701,175.564926 415.694336,174.399384 417.135284,172.782349 
	C414.792755,170.617294 412.725433,168.706604 410.236633,166.223770 
M339.351135,171.760574 
	C333.289734,171.760574 327.228363,171.760574 320.888672,171.760574 
	C321.071594,173.948929 321.188721,175.349884 321.303802,176.726654 
	C328.402985,176.726654 335.134186,176.726654 343.173187,176.726654 
	C341.940369,174.591354 341.130829,173.189194 339.351135,171.760574 
z"/>
<path fill="#176599" opacity="1.000000" stroke="none" 
	d="
M73.177795,148.080215 
	C73.206085,143.094986 72.632462,138.017288 73.381477,133.142807 
	C75.236740,121.069031 85.438622,113.014282 98.199051,113.010330 
	C163.959839,112.989952 229.720627,113.000252 295.481415,113.000038 
	C335.104370,112.999908 374.727325,112.995422 414.350281,113.002411 
	C431.224152,113.005386 440.977020,122.770554 440.998535,139.657135 
	C441.001709,142.154266 440.984802,144.651428 440.692017,147.331284 
	C436.026031,134.731522 428.063843,129.001556 414.621735,129.001068 
	C310.471680,128.997299 206.321594,128.998703 102.171532,128.998856 
	C85.592255,128.998886 79.403130,133.072906 73.177795,148.080215 
z"/>
<path fill="#176599" opacity="1.000000" stroke="none" 
	d="
M73.104836,193.403046 
	C195.414917,192.962463 317.670929,192.971146 440.384033,192.966736 
	C440.841095,195.410126 440.841095,197.866608 440.841095,200.659210 
	C318.258026,200.659210 196.048447,200.659210 73.050758,200.659210 
	C73.050758,198.349487 73.050758,196.100906 73.104836,193.403046 
z"/>
<path fill="#49A2EA" opacity="1.000000" stroke="none" 
	d="
M73.141327,148.513275 
	C79.403130,133.072906 85.592255,128.998886 102.171532,128.998856 
	C206.321594,128.998703 310.471680,128.997299 414.621735,129.001068 
	C428.063843,129.001556 436.026031,134.731522 440.612366,147.797363 
	C440.857330,150.401733 440.896820,152.722717 440.878601,155.475830 
	C435.642609,141.882980 428.543365,137.000504 413.315063,137.000443 
	C308.170166,137.000031 203.025269,136.996292 97.880379,137.006912 
	C85.655334,137.008133 76.937874,143.630325 73.385437,155.623657 
	C73.155739,153.581497 73.130295,151.263916 73.141327,148.513275 
z"/>
<path fill="#00BADF" opacity="1.000000" stroke="none" 
	d="
M333.017090,249.000000 
	C358.445892,249.000000 383.378479,249.000000 408.654144,249.000000 
	C408.654144,251.694046 408.654144,254.069763 408.654144,256.726807 
	C379.539215,256.726807 350.520020,256.726807 321.250916,256.726807 
	C321.250916,254.243362 321.250916,251.977417 321.250916,249.000000 
	C325.001587,249.000000 328.761200,249.000000 333.017090,249.000000 
z"/>
<path fill="#00BADF" opacity="1.000000" stroke="none" 
	d="
M359.000000,305.000000 
	C346.216003,305.000000 333.932007,305.000000 321.326416,305.000000 
	C321.326416,302.269257 321.326416,299.894043 321.326416,297.263336 
	C350.499023,297.263336 379.517303,297.263336 408.767090,297.263336 
	C408.767090,299.787048 408.767090,302.052032 408.767090,305.000000 
	C392.311127,305.000000 375.905548,305.000000 359.000000,305.000000 
z"/>
<path fill="#DA5C3B" opacity="1.000000" stroke="none" 
	d="
M326.170166,273.000183 
	C353.900665,273.000000 381.149323,273.000000 408.695587,273.000000 
	C408.695587,275.774628 408.695587,278.022552 408.695587,280.636627 
	C379.609222,280.636627 350.601349,280.636627 321.297882,280.636627 
	C321.297882,278.216248 321.297882,275.969360 321.297882,273.326721 
	C322.806366,273.214600 324.247345,273.107483 326.170166,273.000183 
z"/>
<path fill="#C2C1C2" opacity="1.000000" stroke="none" 
	d="
M258.754700,307.000061 
	C258.754608,331.126801 258.754608,354.753540 258.754608,378.380280 
	C257.891296,378.458191 257.027985,378.536072 256.164642,378.613983 
	C255.858185,376.789429 255.287643,374.965332 255.284515,373.140259 
	C255.230072,341.351624 255.245193,309.562836 255.245193,277.774109 
	C255.245178,261.463654 255.220154,245.153122 255.281158,228.842911 
	C255.287811,227.062317 255.790207,225.283554 257.074890,223.547470 
	C259.607941,237.187912 258.502838,250.909576 258.708252,264.559570 
	C258.918549,278.536804 258.754791,292.519653 258.754700,307.000061 
z"/>
<path fill="#FFFFFF" opacity="1.000000" stroke="none" 
	d="
M166.000183,305.000000 
	C158.866058,305.000000 152.231888,305.000000 145.300323,305.000000 
	C145.300323,302.367279 145.300323,299.969299 145.300323,297.281464 
	C163.625305,297.281464 182.011368,297.281464 200.699371,297.281464 
	C200.699371,299.632141 200.699371,302.030151 200.699371,305.000000 
	C189.344986,305.000000 177.922562,305.000000 166.000183,305.000000 
z"/>
<path fill="#FFFFFF" opacity="1.000000" stroke="none" 
	d="
M145.000565,349.942444 
	C145.000122,348.162659 145.000122,346.856537 145.000122,345.276001 
	C163.646515,345.276001 182.038193,345.276001 200.715546,345.276001 
	C200.715546,347.663177 200.715546,350.061096 200.715546,353.000000 
	C193.131500,353.000000 185.527740,353.000031 177.923981,353.000000 
	C168.102905,352.999969 158.281815,352.995544 148.460739,353.003601 
	C146.643036,353.005096 144.563217,353.407867 145.000565,349.942444 
z"/>
<path fill="#FFFFFF" opacity="1.000000" stroke="none" 
	d="
M186.993103,369.000000 
	C191.795807,369.000000 196.100235,369.000000 200.701111,369.000000 
	C200.701111,371.635437 200.701111,374.033386 200.701111,376.719849 
	C182.371231,376.719849 163.984818,376.719849 145.298553,376.719849 
	C145.298553,374.363953 145.298553,371.966003 145.298553,369.000000 
	C158.990646,369.000000 172.742752,369.000000 186.993103,369.000000 
z"/>
<path fill="#FFFFFF" opacity="1.000000" stroke="none" 
	d="
M187.989639,273.000000 
	C192.459702,273.000000 196.431519,273.000000 200.700424,273.000000 
	C200.700424,275.634155 200.700424,278.032166 200.700424,280.719238 
	C182.372604,280.719238 163.986176,280.719238 145.299225,280.719238 
	C145.299225,278.365204 145.299225,275.967224 145.299225,273.000000 
	C159.322021,273.000000 173.406708,273.000000 187.989639,273.000000 
z"/>
<path fill="#FFFFFF" opacity="1.000000" stroke="none" 
	d="
M163.001007,249.000000 
	C175.793762,249.000000 188.086823,249.000000 200.689209,249.000000 
	C200.689209,251.613312 200.689209,254.011856 200.689209,256.709412 
	C182.395874,256.709412 164.009598,256.709412 145.310989,256.709412 
	C145.310989,254.387039 145.310989,251.988495 145.310989,249.000000 
	C150.971909,249.000000 156.736633,249.000000 163.001007,249.000000 
z"/>
<path fill="#00BADF" opacity="1.000000" stroke="none" 
	d="
M321.535950,352.533081 
	C321.189484,350.071136 321.189484,347.918793 321.189484,345.383240 
	C336.883057,345.383240 352.578888,345.383240 368.638184,345.383240 
	C368.638184,347.662964 368.638184,350.037964 368.638184,352.842682 
	C353.026642,352.842682 337.454559,352.842682 321.535950,352.533081 
z"/>
<path fill="#00935F" opacity="1.000000" stroke="none" 
	d="
M368.312592,369.607544 
	C368.745697,372.016754 368.848083,374.122375 368.969696,376.622742 
	C352.949402,376.622742 337.412567,376.622742 321.439667,376.622742 
	C321.439667,374.344482 321.439667,372.119446 321.439667,369.303986 
	C336.901978,369.303986 352.441956,369.303986 368.312592,369.607544 
z"/>
<path fill="#00935F" opacity="1.000000" stroke="none" 
	d="
M352.770142,226.339508 
	C352.898224,228.572617 352.898224,230.374222 352.898224,232.587082 
	C342.364716,232.587082 332.158447,232.587082 321.477264,232.587082 
	C321.477264,230.303802 321.477264,227.970993 321.477264,225.908005 
	C331.993713,225.908005 342.317902,225.908005 352.770142,226.339508 
z"/>
<path fill="#DFC15D" opacity="1.000000" stroke="none" 
	d="
M167.950043,225.000000 
	C171.074814,225.000000 173.706924,225.000000 176.664597,225.000000 
	C176.664597,227.708191 176.664597,230.079956 176.664597,232.729614 
	C166.195419,232.729614 155.837021,232.729614 145.239761,232.729614 
	C145.239761,230.228195 145.239761,227.965851 145.239761,225.000000 
	C152.648483,225.000000 160.052933,225.000000 167.950043,225.000000 
z"/>
<path fill="#00935F" opacity="1.000000" stroke="none" 
	d="
M347.811646,321.000336 
	C349.722443,321.126556 351.157013,321.252472 352.769318,321.394012 
	C352.769318,323.924011 352.769318,326.034149 352.769318,328.572327 
	C342.400635,328.572327 332.200043,328.572327 321.500671,328.572327 
	C321.500671,326.349091 321.500671,324.017670 321.500671,321.000061 
	C330.175781,321.000061 338.755646,321.000061 347.811646,321.000336 
z"/>
<path fill="#DFC15D" opacity="1.000000" stroke="none" 
	d="
M163.989716,329.000000 
	C157.543625,329.000000 151.595932,329.000000 145.327164,329.000000 
	C145.327164,326.277344 145.327164,323.907318 145.327164,321.263550 
	C155.819382,321.263550 166.176590,321.263550 176.766251,321.263550 
	C176.766251,323.782532 176.766251,326.044525 176.766251,329.000000 
	C172.655533,329.000000 168.571808,329.000000 163.989716,329.000000 
z"/>
<path fill="#FFFFFF" opacity="1.000000" stroke="none" 
	d="
M405.797882,345.000397 
	C411.761963,345.776642 407.646729,350.003052 409.461884,352.649353 
	C401.060181,352.649353 393.210968,352.649353 385.178772,352.649353 
	C385.178772,350.255920 385.178772,347.970795 385.178772,345.000061 
	C391.827362,345.000061 398.572144,345.000061 405.797882,345.000397 
z"/>
<path fill="#FFFFFF" opacity="1.000000" stroke="none" 
	d="
M404.835999,369.000031 
	C412.249207,368.646423 407.574341,373.942841 409.454437,376.663269 
	C401.167969,376.663269 393.438873,376.663269 385.353302,376.663269 
	C385.353302,374.467377 385.353302,372.074463 385.353302,369.000000 
	C391.524200,369.000000 397.939636,369.000000 404.835999,369.000031 
z"/>
<path fill="#DFC15D" opacity="1.000000" stroke="none" 
	d="
M292.999939,321.000000 
	C297.112885,321.000000 300.733337,321.000000 304.674164,321.000000 
	C304.674164,323.724091 304.674164,326.093994 304.674164,328.735291 
	C296.846832,328.735291 289.153229,328.735291 281.230469,328.735291 
	C281.230469,326.213043 281.230469,323.952515 281.230469,321.000000 
	C285.010223,321.000000 288.758850,321.000000 292.999939,321.000000 
z"/>
<path fill="#DA5C3B" opacity="1.000000" stroke="none" 
	d="
M105.003281,325.000488 
	C104.743156,322.129761 105.504082,320.897095 108.259575,320.958649 
	C114.883286,321.106598 121.512535,321.006561 128.566956,321.006561 
	C128.566956,323.645050 128.566956,325.999542 128.566956,328.966034 
	C121.439308,328.966034 114.347885,329.077026 107.270592,328.811707 
	C106.473984,328.781799 105.757141,326.624817 105.003281,325.000488 
z"/>
<path fill="#DFC15D" opacity="1.000000" stroke="none" 
	d="
M299.846436,232.999939 
	C293.427002,233.000000 287.491821,233.000000 281.283081,233.000000 
	C281.283081,230.312042 281.283081,228.053665 281.283081,225.396057 
	C288.867462,225.396057 296.560120,225.396057 304.628418,225.396057 
	C304.628418,227.637314 304.628418,230.004929 304.628418,232.729141 
	C303.213440,232.818268 301.772064,232.909058 299.846436,232.999939 
z"/>
<path fill="#DA5C3B" opacity="1.000000" stroke="none" 
	d="
M123.827637,225.000198 
	C125.744263,225.106094 127.181953,225.211838 128.717773,225.324799 
	C128.717773,227.946716 128.717773,230.189453 128.717773,232.714767 
	C120.886002,232.714767 113.329765,232.714767 105.386993,232.714767 
	C105.386993,230.270203 105.386993,227.917542 105.386993,225.000031 
	C111.491615,225.000031 117.420158,225.000031 123.827637,225.000198 
z"/>
<path fill="#00BADF" opacity="1.000000" stroke="none" 
	d="
M225.959854,305.000000 
	C222.858383,305.000000 220.239502,305.000000 217.313278,305.000000 
	C217.313278,302.252655 217.313278,299.887299 217.313278,297.257141 
	C222.379364,297.257141 227.287643,297.257141 232.598892,297.257141 
	C232.598892,299.581909 232.598892,301.951172 232.598892,305.000000 
	C230.618790,305.000000 228.530609,305.000000 225.959854,305.000000 
z"/>
<path fill="#00BADF" opacity="1.000000" stroke="none" 
	d="
M231.637787,280.908142 
	C226.711761,280.971741 222.251724,280.971741 217.397247,280.971741 
	C217.397247,278.410187 217.397247,276.040039 217.397247,273.329712 
	C222.341141,273.329712 227.375275,273.329712 233.258438,273.329712 
	C232.855774,275.950317 232.479782,278.397430 231.637787,280.908142 
z"/>
<path fill="#00BADF" opacity="1.000000" stroke="none" 
	d="
M217.547897,345.455078 
	C222.685501,345.153809 227.470154,345.153809 232.626129,345.153809 
	C232.626129,347.631500 232.626129,349.997620 232.626129,352.691650 
	C227.606796,352.691650 222.572586,352.691650 217.194962,352.691650 
	C217.194962,350.279663 217.194962,348.018036 217.547897,345.455078 
z"/>
<path fill="#00BADF" opacity="1.000000" stroke="none" 
	d="
M224.043579,257.000000 
	C221.597366,257.000000 219.633163,257.000000 217.339905,257.000000 
	C217.339905,254.305176 217.339905,251.939346 217.339905,249.280457 
	C222.455612,249.280457 227.486832,249.280457 232.758911,249.280457 
	C232.758911,251.766220 232.758911,254.024368 232.758911,257.000000 
	C230.016953,257.000000 227.271255,257.000000 224.043579,257.000000 
z"/>
<path fill="#00BADF" opacity="1.000000" stroke="none" 
	d="
M226.914261,369.000000 
	C229.024582,369.000000 230.658829,369.000000 232.644897,369.000000 
	C232.644897,371.668365 232.644897,374.036652 232.644897,376.706909 
	C227.572968,376.706909 222.540848,376.706909 217.253815,376.706909 
	C217.253815,374.256653 217.253815,371.997803 217.253815,369.000000 
	C220.285934,369.000000 223.362076,369.000000 226.914261,369.000000 
z"/>
<path fill="#F1F7FB" opacity="1.000000" stroke="none" 
	d="
M358.392792,156.729156 
	C365.441132,156.311523 372.354980,156.311523 379.534546,156.311523 
	C379.534546,162.932785 379.534546,169.669418 379.534546,176.718018 
	C372.468658,176.718018 365.594543,176.718018 358.258301,176.718018 
	C358.258301,170.044388 358.258301,163.595581 358.392792,156.729156 
M374.125092,170.145523 
	C374.125092,167.229935 374.125092,164.314362 374.125092,161.405670 
	C370.382935,161.405670 367.194580,161.405670 364.230957,161.405670 
	C364.230957,164.994583 364.230957,168.200668 364.230957,172.000610 
	C367.749329,171.638077 370.790039,171.324768 374.125092,170.145523 
z"/>
<path fill="#F1F7FB" opacity="1.000000" stroke="none" 
	d="
M410.447357,166.509842 
	C412.725433,168.706604 414.792755,170.617294 417.135284,172.782349 
	C415.694336,174.399384 414.655701,175.564926 412.728363,177.727753 
	C410.666962,174.697281 408.791412,171.940048 406.274292,168.239578 
	C403.450897,172.205505 401.543518,174.884720 399.439758,177.839798 
	C397.065826,175.707535 395.894379,174.655365 394.454346,173.361954 
	C396.879120,170.759201 399.108124,168.366562 401.649475,165.638641 
	C399.310242,163.185059 397.069275,160.834518 394.128418,157.749878 
	C395.438324,156.659790 396.648590,155.652634 398.071350,154.468643 
	C400.742340,156.986221 403.111938,159.219711 405.657288,161.618851 
	C408.227020,159.220947 410.623627,156.984589 413.482605,154.316742 
	C414.812195,155.566040 415.965485,156.649689 416.909332,157.536530 
	C414.335205,160.887802 412.285919,163.555786 410.447357,166.509842 
z"/>
<path fill="#FFFFFF" opacity="1.000000" stroke="none" 
	d="
M339.836212,171.773804 
	C341.130829,173.189194 341.940369,174.591354 343.173187,176.726654 
	C335.134186,176.726654 328.402985,176.726654 321.303802,176.726654 
	C321.188721,175.349884 321.071594,173.948929 320.888672,171.760574 
	C327.228363,171.760574 333.289734,171.760574 339.836212,171.773804 
z"/>
<path fill="#1C75BC" opacity="1.000000" stroke="none" 
	d="
M373.977905,170.578491 
	C370.790039,171.324768 367.749329,171.638077 364.230957,172.000610 
	C364.230957,168.200668 364.230957,164.994583 364.230957,161.405670 
	C367.194580,161.405670 370.382935,161.405670 374.125092,161.405670 
	C374.125092,164.314362 374.125092,167.229935 373.977905,170.578491 
z"/>
</svg>